<?xml version="1.0" encoding="UTF-8" standalone="no"?>
<svg width="290px" height="157px" viewBox="0 0 290 157" version="1.1" xmlns="http://www.w3.org/2000/svg" xmlns:xlink="http://www.w3.org/1999/xlink" xmlns:sketch="http://www.bohemiancoding.com/sketch/ns">
    <!-- Generator: Sketch 3.2.2 (9983) - http://www.bohemiancoding.com/sketch -->
    <title> 290</title>
    <desc>Created with Sketch.</desc>
    <defs></defs>
    <g id="Page-1" stroke="none" stroke-width="1" fill="none" fill-rule="evenodd" sketch:type="MSPage">
        <g id="-290" sketch:type="MSLayerGroup">
            <path d="M123.909091,157 L123.909091,146.40141 L166.090909,146.40141 L166.090909,156.872524 L123.909091,157 Z" id="goal-frame" fill-opacity="0.5" fill="#FF5B3A" sketch:type="MSShapeGroup"></path>
            <path d="M-2.84217094e-14,0 L-2.84217094e-14,145.604839 L290,145.604839 L289.999993,0 L-2.84217094e-14,0 Z" id="touchline" fill-opacity="0.3" fill="#77AB6F" sketch:type="MSShapeGroup"></path>
            <path d="M176.892874,54.8710612 C170.696835,43.1142553 158.485679,35.1162145 144.43468,35.1162145 C130.435629,35.1162145 118.262841,43.0552247 112.045455,54.7408155" id="d-edge" fill-opacity="0.3" fill="#77AB6F" sketch:type="MSShapeGroup"></path>
            <path d="M60.5217391,145.312413 L60.5217391,55.7096774 L229.683319,55.7096774 L229.683319,145.312413" id="penalty-area" fill-opacity="0.3" fill="#77AB6F" sketch:type="MSShapeGroup"></path>
            <path d="M106.113636,145.303691 L106.113636,115.268052 L182.945769,115.268052 L182.945769,144.942434 L106.113636,145.303691 Z" id="six-yard-box" fill-opacity="0.3" fill="#77AB6F" sketch:type="MSShapeGroup"></path>
            <ellipse id="penalty-spot" fill="#FFFFDF" sketch:type="MSShapeGroup" cx="144.601926" cy="84.4042573" rx="0.920107425" ry="0.931975693"></ellipse>
        </g>
    </g>
</svg>