<svg class="playerPitch" width="280px" height="151px" viewBox="0 0 280 151"><defs><linearGradient x1="50%" y1="0%" x2="50%" y2="100%" id="linearGradient-1"><stop stop-color="#C8E0C2" stop-opacity="0.5" offset="0%"></stop><stop stop-color="#C8E0C2" offset="100%"></stop></linearGradient></defs><path d="M119.636364,151 L119.636364,140.806452 L160.363636,140.806452 L160.363636,150.877396 L119.636364,151 Z" class="goal-frame" fill-opacity="0.5" fill="#FF5B3A"></path><path d="M-2.84217094e-14,0 L-2.84217094e-14,140.040323 L280,140.040323 L279.999993,0 L-2.84217094e-14,0 Z" class="touchline" fill="url(#linearGradient-1)"></path><path d="M170.793119,52.774078 C164.810737,41.4665768 153.020655,33.7741935 139.454174,33.7741935 C125.937849,33.7741935 114.184812,41.4098021 108.181818,52.6488098" class="d-edge" fill-opacity="0.3" fill="#77AB6F"></path><path d="M58.4347826,139.759073 L58.4347826,53.5806452 L221.763204,53.5806452 L221.763204,139.759073" class="penalty-area" fill-opacity="0.3" fill="#77AB6F"></path><path d="M102.454545,139.750684 L102.454545,110.862903 L176.637294,110.862903 L176.637294,139.403232 L102.454545,139.750684 Z" class="six-yard-box" fill-opacity="0.3" fill="#77AB6F"></path><ellipse class="penalty-spot" fill="#FFFFDF" cx="139.615652" cy="81.1786169" rx="0.888379582" ry="0.896358787"></ellipse></svg>