<?xml version="1.0" encoding="utf-8"?>
<!-- Generator: Adobe Illustrator 16.0.1, SVG Export Plug-In . SVG Version: 6.00 Build 0)  -->
<!DOCTYPE svg PUBLIC "-//W3C//DTD SVG 1.1 Basic//EN" "http://www.w3.org/Graphics/SVG/1.1/DTD/svg11-basic.dtd">
<svg version="1.1" baseProfile="basic" id="Layer_1"
	 xmlns="http://www.w3.org/2000/svg" xmlns:xlink="http://www.w3.org/1999/xlink" x="0px" y="0px" width="90px" height="547.5px"
	 viewBox="0 0 90 547.5" xml:space="preserve">
<path fill-rule="evenodd" clip-rule="evenodd" fill="#4DC6DF" d="M-491.593,436.342v-1.972c-2.292-1.544-10.28-4.314-11.557-4.745
	c-0.693-0.42-5.214-6.079-6.972-6.842c0.106-2.707,0.562-5.699,1.067-8.197c0.209-1.499,0.418-2.999,0.628-4.498
	c0.199-0.687,0.707-1.227,0.879-2.034c0.503-3.39,1.005-6.779,1.508-10.169c0.576-3.197,0.212-7.148,0.878-10.107
	c0.105-0.801,0.21-1.602,0.314-2.403c0.942-1.068,1.885-2.137,2.827-3.205c2.181-2.333,4.143-4.84,6.093-7.396
	c0.917-1.201,8.446-11.578,10.05-14.853c5.907-12.062,10.485-36.779,5.338-53.125c-1.215-3.86-3.653-10.638-6.909-12.141
	c-0.042-0.042-0.084-0.083-0.125-0.123c-0.147,0.206-0.293,0.411-0.439,0.616c-0.377-0.205-0.754-0.41-1.131-0.616
	c-0.117,2.331,0.634,4.937,0.314,7.334c-8.583-0.103-49.108-0.103-57.691,0c-0.32-2.397,0.432-5.003,0.314-7.334
	c-0.377,0.206-0.754,0.411-1.131,0.616c-0.146-0.205-0.292-0.41-0.439-0.616c-0.042,0.04-0.083,0.081-0.125,0.123
	c-3.255,1.503-5.694,8.28-6.909,12.141c-5.146,16.346-0.568,41.063,5.338,53.125c1.604,3.274,9.133,13.651,10.05,14.853
	c1.95,2.556,3.912,5.062,6.093,7.396c0.942,1.068,1.884,2.137,2.827,3.205c0.104,0.802,0.209,1.603,0.314,2.403
	c0.667,2.959,0.303,6.91,0.878,10.107c0.503,3.39,1.005,6.779,1.508,10.169c0.172,0.808,0.681,1.348,0.879,2.034
	c0.209,1.499,0.418,2.999,0.628,4.498c0.505,2.498,0.961,5.49,1.067,8.197c-1.758,0.763-6.279,6.422-6.972,6.842
	c-1.277,0.431-9.266,3.201-11.557,4.745c0,0-0.125,2.013-0.188,2.034c-1.403,0.514-4.564,1.995-4.962,2.217
	c-0.542,4.194-0.163,69.318-0.188,72.354c1.982,1.431,4.23,2.53,6.425,3.775h24.626h0.74h24.626
	c2.195-1.245,4.442-2.345,6.425-3.775c-0.025-3.035-0.188-72.354-0.188-72.354S-491.53,436.363-491.593,436.342z"/>
<path fill-rule="evenodd" clip-rule="evenodd" fill="#4DC6DF" d="M-338.572,248.226c-1.369-14.834-12.787-23.905-16.881-35.292
	c-4.926-13.703,2.275-30.709,4.404-43.937c-0.734-9.602-1.469-19.207-2.202-28.81c2.374-10.061,11.466-15.482,13.211-26.649
	c-1.956-1.2-3.915-2.401-5.872-3.602c-0.244-0.479-0.489-0.96-0.733-1.44c24.103-30.595,3.123-70.644-29.782-70.644
	c-32.905,0-47.811,30.236-34.805,66.322v15.845c3.914,5.042,7.829,10.085,11.743,15.126c-0.244,5.281-0.489,10.563-0.734,15.846
	c1.468,7.202,2.936,14.405,4.404,21.607c-0.489,13.924,2.048,25.846-0.887,38.811c-2.787,12.305-13.612,22.883-15.097,37.339
	c-0.103,0.475-0.106,2.408-0.08,2.435c1.212,8.13,17.163,14.567,36.672,14.567c20.299,0,36.755-6.967,36.755-15.561
	C-338.458,249.564-338.621,248.267-338.572,248.226z"/>
<path fill="#4DC6DD" d="M-488.242,197.885c4.993-6.556,9.361-14.181,12.989-21.91c5.015-10.685,8.966-54.451,7.748-59.633
	c-1.542-6.561-4.543-10.846-5.469-17.393c-1.133-8.013,3.551-19.479-0.228-26.654c-2.784-5.287-7.057-6.716-12.534-7.906
	c-3.934-0.854-12.078-1.355-12.078-1.355l-0.05-2.914c9.809-0.796,16.398-2.269,16.398-3.954l5.002-12.424
	c0.151-0.191,0.234-0.385,0.234-0.582c0-2.931-17.196-5.308-38.41-5.308c-21.214,0-38.411,2.376-38.411,5.308
	c0,0.197,0.083,0.391,0.234,0.582l5.004,12.424c0,1.68,6.541,3.147,16.291,3.946l0.056,2.922c0,0-8.144,0.501-12.078,1.355
	c-5.477,1.189-9.75,2.619-12.534,7.906c-3.779,7.175,0.906,18.642-0.228,26.654c-0.926,6.546-3.927,10.832-5.469,17.393
	c-1.218,5.182,2.733,48.949,7.748,59.633c3.628,7.729,7.996,15.354,12.989,21.91c3.29,4.32,8.12,9.288,9.571,15.134
	c0.686,2.766-1.323,3.552-1.823,4.971v2.936c-0.912,1.129-1.823,2.259-2.734,3.389c-0.684,1.882-1.368,3.765-2.051,5.646
	c-1.443,0.98-2.886,1.958-4.33,2.938c-0.38,1.204-0.76,2.408-1.139,3.614c-3.093,4.208-9.712,5.44-8.66,12.648
	c-0.592,0.735,2.98,3.548,4.102,4.293c5.299,3.515,10.464,3.942,18.458,5.647c4.045,0.861,9.371,1.207,15.002,1.037
	c5.631,0.17,10.958-0.176,15.002-1.037c7.994-1.705,13.159-2.133,18.458-5.647c1.122-0.745,4.694-3.558,4.102-4.293
	c1.053-7.208-5.567-8.44-8.66-12.648c-0.379-1.206-0.759-2.41-1.139-3.614c-1.443-0.979-2.887-1.957-4.33-2.938
	c-0.684-1.882-1.368-3.765-2.051-5.646c-0.911-1.13-1.823-2.26-2.734-3.389v-2.936c-0.5-1.419-2.509-2.205-1.823-4.971
	C-496.362,207.173-491.532,202.206-488.242,197.885z M-541.658,97.278c-5.592,0-10.125-5.663-10.125-12.65
	c0-3.409-0.587-8.937,1.167-11.211c1.841-2.388,2.5-3,8.5-4.5c4.44-1.11,7.584-0.466,9.333,1.333
	c2.256,2.32,1.25,10.443,1.25,14.378C-531.533,91.615-536.066,97.278-541.658,97.278z M-496.654,84.628
	c0-3.935-1.006-12.058,1.25-14.378c1.749-1.799,4.893-2.443,9.333-1.333c6,1.5,6.659,2.112,8.5,4.5
	c1.755,2.274,1.167,7.802,1.167,11.211c0,6.987-4.533,12.65-10.125,12.65S-496.654,91.615-496.654,84.628z"/>
<path fill-rule="evenodd" clip-rule="evenodd" fill="#4DC6DF" d="M63.445,274.593v-1.343c-1.562-1.052-7.002-2.939-7.872-3.232
	c-0.472-0.286-3.551-4.141-4.748-4.66c0.071-1.844,0.383-3.882,0.727-5.584c0.143-1.021,0.285-2.042,0.429-3.063
	c0.134-0.467,0.48-0.835,0.598-1.386c0.343-2.309,0.685-4.617,1.027-6.926c0.393-2.178,0.145-4.869,0.599-6.885
	c0.072-0.545,0.143-1.091,0.215-1.637c0.641-0.728,1.283-1.455,1.925-2.183c1.485-1.589,2.822-3.297,4.15-5.038
	c0.624-0.818,5.753-7.886,6.845-10.117c4.023-8.215,7.142-25.052,3.636-36.186c-0.827-2.629-2.488-7.246-4.705-8.269
	c-0.029-0.029-0.058-0.057-0.085-0.084c-0.102,0.141-0.2,0.28-0.299,0.42c-0.257-0.14-0.514-0.279-0.771-0.42
	c-0.08,1.588,0.432,3.362,0.214,4.996c-5.846-0.07-33.45-0.07-39.297,0c-0.217-1.633,0.294-3.408,0.215-4.996
	c-0.257,0.141-0.514,0.28-0.771,0.42c-0.1-0.14-0.199-0.279-0.3-0.42c-0.027,0.027-0.056,0.055-0.085,0.084
	c-2.218,1.023-3.878,5.64-4.706,8.269c-3.505,11.134-0.387,27.971,3.637,36.186c1.092,2.23,6.221,9.299,6.845,10.117
	c1.329,1.741,2.665,3.448,4.15,5.038c0.642,0.728,1.284,1.455,1.925,2.183c0.071,0.546,0.143,1.092,0.214,1.637
	c0.455,2.016,0.206,4.707,0.6,6.885c0.343,2.309,0.684,4.618,1.026,6.926c0.117,0.55,0.464,0.918,0.599,1.386
	c0.144,1.021,0.286,2.043,0.429,3.063c0.344,1.702,0.654,3.74,0.727,5.584c-1.198,0.52-4.277,4.375-4.748,4.66
	c-0.87,0.293-6.312,2.181-7.873,3.232c0,0-0.086,1.371-0.128,1.385c-0.955,0.35-3.108,1.359-3.38,1.51
	c-0.368,2.857-0.111,47.216-0.128,49.284c1.35,0.974,2.881,1.724,4.376,2.571h16.774h0.504h16.773
	c1.494-0.848,3.025-1.598,4.376-2.571c-0.018-2.067-0.129-49.284-0.129-49.284S63.489,274.607,63.445,274.593z"/>
<path fill-rule="evenodd" clip-rule="evenodd" fill="#4DC6DF" d="M70.36,496.466c-0.9-9.764-8.416-15.734-11.109-23.229
	c-3.242-9.02,1.498-20.212,2.898-28.918c-0.484-6.32-0.967-12.643-1.449-18.963c1.562-6.621,7.547-10.189,8.695-17.54
	c-1.287-0.79-2.576-1.581-3.865-2.37c-0.16-0.316-0.322-0.633-0.482-0.948C80.911,384.359,67.103,358,45.444,358
	c-21.656,0-31.467,19.901-22.908,43.652v10.43c2.576,3.318,5.154,6.637,7.73,9.955c-0.162,3.477-0.322,6.953-0.484,10.43
	c0.967,4.74,1.934,9.481,2.898,14.222c-0.32,9.165,1.35,17.012-0.584,25.545c-1.834,8.099-8.959,15.062-9.936,24.576
	c-0.068,0.312-0.07,1.585-0.053,1.603C22.905,503.764,33.405,508,46.245,508c13.361,0,24.191-4.586,24.191-10.242
	C70.437,497.347,70.329,496.492,70.36,496.466z"/>
<path fill="#4DC6DD" d="M63.489,108.97c3.369-4.422,6.315-9.567,8.764-14.782c3.383-7.208,6.049-36.737,5.227-40.233
	c-1.04-4.427-3.064-7.318-3.689-11.735c-0.764-5.406,2.396-13.142-0.153-17.983c-1.879-3.566-4.761-4.532-8.456-5.334
	c-2.654-0.577-8.148-0.915-8.148-0.915l-0.034-1.966c6.617-0.537,11.064-1.53,11.064-2.668l3.374-8.382
	c0.102-0.129,0.158-0.259,0.158-0.392C71.595,2.603,59.993,1,45.681,1S19.766,2.603,19.766,4.581c0,0.133,0.057,0.263,0.158,0.392
	l3.377,8.382c0,1.134,4.412,2.124,10.99,2.663l0.038,1.971c0,0-5.495,0.338-8.148,0.915c-3.696,0.802-6.578,1.768-8.457,5.334
	c-2.549,4.841,0.61,12.577-0.153,17.983c-0.625,4.417-2.649,7.308-3.689,11.735c-0.822,3.496,1.844,33.025,5.228,40.233
	c2.447,5.215,5.395,10.36,8.763,14.782c2.22,2.915,5.479,6.267,6.458,10.21c0.463,1.866-0.894,2.396-1.23,3.354v1.981
	c-0.616,0.761-1.23,1.524-1.845,2.286c-0.462,1.27-0.923,2.54-1.384,3.81c-0.974,0.662-1.948,1.321-2.921,1.982
	c-0.257,0.812-0.513,1.625-0.769,2.438c-2.088,2.839-6.553,3.67-5.844,8.533c-0.399,0.497,2.012,2.394,2.769,2.896
	c3.574,2.372,7.06,2.66,12.453,3.811c2.729,0.581,6.323,0.814,10.122,0.7c3.799,0.114,7.393-0.119,10.121-0.7
	c5.394-1.151,8.879-1.439,12.454-3.811c0.757-0.502,3.166-2.4,2.768-2.896c0.71-4.863-3.756-5.694-5.843-8.533
	c-0.257-0.814-0.513-1.626-0.77-2.438c-0.973-0.661-1.946-1.32-2.921-1.982c-0.461-1.27-0.923-2.54-1.383-3.81
	c-0.615-0.762-1.229-1.525-1.845-2.286v-1.981c-0.338-0.958-1.694-1.488-1.23-3.354C58.011,115.237,61.27,111.885,63.489,108.97z
	 M27.45,41.093c-3.772,0-6.831-3.821-6.831-8.535c0-2.299-0.396-6.029,0.788-7.564c1.242-1.611,1.687-2.024,5.735-3.036
	c2.995-0.749,5.117-0.314,6.296,0.899c1.521,1.565,0.843,7.046,0.843,9.701C34.281,37.272,31.224,41.093,27.45,41.093z
	 M57.813,32.558c0-2.654-0.679-8.135,0.844-9.701c1.18-1.213,3.301-1.648,6.296-0.899c4.048,1.012,4.493,1.425,5.734,3.036
	c1.186,1.535,0.788,5.265,0.788,7.564c0,4.714-3.058,8.535-6.831,8.535C60.873,41.093,57.813,37.272,57.813,32.558z"/>
</svg>
